# xmcd CD database file
#
# Track frame offsets:
#	150
#	14472
#	28090
#	46491
#	56986
#	71519
#	89206
#	100228
#	114973
#	133844
#	147577
#	165837
#
# Disc length: 2372 seconds
#
# Revision: 0
# Processed by: cddbd v1.5.1PL0 Copyright (c) Steve Scherf et al.
# Submitted via: CDex 1.50beta9
#
DISCID=ae09420c
DTITLE=Christine Mims - Perfect For A Rainy Day
DYEAR=2003
DGENRE=Country
TTITLE0=Perfect For A Rainy Day
TTITLE1=Invitation
TTITLE2=Don't Touch Me
TTITLE3=Ain't Had No Lovin'
TTITLE4=Each Time
TTITLE5=Lonely Street
TTITLE6=Another Chance
TTITLE7=I've Had It With You
TTITLE8=Cold Cold War
TTITLE9=Under Your Spell
TTITLE10=Cry Me A River
TTITLE11=Say What's On Your Mind
EXTD=YEAR: 2003
EXTT0=
EXTT1=
EXTT2=
EXTT3=
EXTT4=
EXTT5=
EXTT6=
EXTT7=
EXTT8=
EXTT9=
EXTT10=
EXTT11=
PLAYORDER=
